<svg xmlns="http://www.w3.org/2000/svg" xmlns:xlink="http://www.w3.org/1999/xlink" aria-hidden="true" role="img" class="iconify iconify--logos" width="31.88" height="32" preserveAspectRatio="xMidYMid meet" viewBox="0 0 256 257"><defs><linearGradient id="IconifyId1813088fe1fbc01fb466" x1="-.828%" x2="57.636%" y1="93.739%" y2="31.25%"><stop offset="0%" stop-color="#0088CC"></stop><stop offset="100%" stop-color="#0066AA"></stop></linearGradient></defs><path fill="url(#IconifyId1813088fe1fbc01fb466)" d="M255.153 37.998c-3.035-3.17-9.134-5.267-23.394-11.248C212.052 18.494 128 0 128 0s-84.052 18.494-103.759 26.75c-14.26 5.98-20.359 8.078-23.394 11.248C-2.201 41.217.084 52.171.084 52.171s-.755 52.522 1.13 78.975c1.884 26.453 8.793 35.51 8.793 35.51s8.414 8.793 31.006 11.622c22.593 2.83 32.896 3.018 32.896 3.018s79.186-14.26 119.636-21.648c40.451-7.389 49.055-9.097 49.055-9.097s22.968-9.474 25.806-35.927c2.83-26.453 1.893-78.975 1.893-78.975s2.082-10.954-1.046-14.123zM97.122 171.382c-4.908.177-14.637-3.206-14.637-3.206s-10.954-6.884-23.53-20.408c-13.005-13.982-25.628-44.705-25.628-44.705s-2.642-7.016 2.83-10.396c5.472-3.381 20.596-7.201 20.596-7.201s27.452-6.132 32.925-5.094c5.472 1.038 8.42 6.695 8.42 6.695s2.83 8.609-1.884 37.12c-4.714 28.512-16.613 38.283-16.613 38.283s-7.577 8.74-12.485 8.917zm68.628-9.664c-7.766 9.979-16.37 10.538-16.37 10.538s-10.396 1.32-23.582-11.867c-13.187-13.187-28.888-46.823-28.888-46.823s-3.018-8.232 2.642-12.064c5.66-3.832 25.497-8.793 25.497-8.792s23.21-5.285 34.165-6.411c10.954-1.132 12.086 3.769 12.086 3.769s2.264 7.201-1.51 39.524c-3.773 32.322-11.726 42.126-11.726 42.126s-2.567 3.018-10.333 12.997z"></path></svg>